<svg width="54" height="54" viewBox="0 0 54 54" fill="none" xmlns="http://www.w3.org/2000/svg">
<circle cx="27" cy="27" r="27" fill="#1A73E9"/>
<mask id="mask0_1_1638" style="mask-type:alpha" maskUnits="userSpaceOnUse" x="14" y="14" width="27" height="27">
<rect x="14.3145" y="14.3134" width="26.0241" height="26.0241" fill="#FBFCFF"/>
</mask>
<g mask="url(#mask0_1_1638)">
<path d="M34.7541 31.5543L17.5674 26.7833V20.8194L19.1939 21.3616L19.9529 23.6387L25.1577 25.1025V16.4821L27.3264 17.0242L30.3083 26.5122L35.73 28.0302C36.1457 28.1387 36.4755 28.3601 36.7195 28.6944C36.9635 29.0287 37.0855 29.4037 37.0855 29.8194C37.0855 30.4158 36.8415 30.8947 36.3535 31.2562C35.8656 31.6176 35.3324 31.717 34.7541 31.5543ZM17.5674 37.0845V34.9158H37.0855V37.0845H17.5674Z" fill="#FBFCFF"/>
</g>
</svg>
